<?xml version="1.0" encoding="UTF-8"?>
<svg id="Layer_2" data-name="Layer 2" xmlns="http://www.w3.org/2000/svg" viewBox="0 0 176.37 238.13">
  <defs>
    <style>
      .cls-1 {
        fill: #b30602;
      }
    </style>
  </defs>
  <g id="Layer_1-2" data-name="Layer 1">
    <g>
      <path class="cls-1" d="M168,67.38c-3.01-5.6-7.38-11.81-13.91-17.92-1.94-1.9-4.53-4.22-7.82-6.61-1.14-.85-3.94-2.84-8.25-5.24-3.25-1.8-9.01-5.02-16.34-7.26-12.83-3.93-23.85-2.92-28.12-2.47-.26.02-6.17,1.14-18,3.36-2.99.57-6.35,1.19-10.95,1.89-6.59.99-10.22,1.26-11.22,1.35-4.01.28-6.43.47-9.88.26-5.55-.33-9.48-1.44-10.76-1.82-2.02-.59-4.19-1.25-6.8-2.75-1.9-1.11-3.86-2.27-5.57-4.57-1.73-2.33-2.27-4.58-2.42-5.26-.85-3.86.28-7,.83-8.49.57-1.5,2.08-4.95,5.66-7.7,4.72-3.63,9.88-3.61,11.4-3.56-8.99-1.87-17.71.8-21.88,6.64-1.66,2.33-3.48,6.38-3.53,10.93-.03,2.87.61,5.43.9,6.55.42,1.57.85,3.3,1.92,5.24,1.57,2.82,3.56,4.44,5.45,5.95,3.06,2.44,5.81,3.68,8.04,4.67,1.71.76,5.81,2.46,11.29,3.42,4.1.71,7.66.78,9.98.83.43,0,1.75.02,3.46-.02,3.34-.09,6.71-.36,10.6-.88,9.01-1.21,10-2.47,20.32-3.6,4.38-.47,7.82-.64,11.76-.35,1.31.09,5.47.43,10.72,1.76,3.16.8,5.83,1.73,7.9,2.54,2.27.86,4.86,2.06,7.63,3.7,3.13,1.89,5.69,3.87,7.66,5.66,3.29,3.42,5.5,6.71,6.95,9.17,1.31,2.27,3.65,6.33,4.93,11.9.76,3.36.92,6.24.92,8.28-2.54-1.97-5.31-3.74-8.27-5.28-9.63-5.05-20.79-7.57-33.52-7.57-17.83,0-34,4.46-48.49,13.39-14.51,8.92-26.06,20.67-34.66,35.25-8.61,14.58-13.7,30.09-15.24,46.52-.48,3.72-.71,7.37-.71,10.93,0,12.56,2.59,23.5,7.8,32.81,5.19,9.3,12.59,16.48,22.21,21.51,9.62,5.03,20.79,7.57,33.5,7.57,17.85,0,34-4.51,48.51-13.51,14.51-8.98,26.1-20.82,34.78-35.47,2.97-5.03,5.53-10.15,7.66-15.38v-.02c3.98-6.24,37.05-62.66,13.54-106.38ZM132.13,140.42c-1.69,13.65-5.6,26.89-11.74,39.78-6.12,12.87-13.89,23.43-23.26,31.63-9.39,8.23-19.58,12.33-30.59,12.33-11.62,0-20.67-4.15-27.1-12.44-6.43-8.3-9.65-19.2-9.65-32.7,0-3.86.22-7.75.69-11.62,1.71-13.49,5.59-26.67,11.64-39.54,6.05-12.88,13.75-23.38,23.14-31.53,9.37-8.15,19.58-12.23,30.59-12.23,11.8,0,20.91,4.17,27.34,12.45,6.42,8.3,9.65,19.11,9.65,32.45,0,3.58-.22,7.38-.71,11.41Z"/>
      <circle class="cls-1" cx="36.3" cy="17" r="11"/>
    </g>
  </g>
</svg>