<?xml version="1.0" encoding="UTF-8"?>
<svg id="Layer_2" data-name="Layer 2" xmlns="http://www.w3.org/2000/svg" viewBox="0 0 444.13 388.11">
  <defs>
    <style>
      .cls-1, .cls-2 {
        fill: #b30602;
      }

      .cls-2 {
        font-family: Poppins-Light, Poppins;
        font-size: 42.1px;
        font-weight: 300;
      }
    </style>
  </defs>
  <g id="Layer_1-2" data-name="Layer 1">
    <g>
      <g>
        <g>
          <path class="cls-1" d="M278.08,217.87c-.19-3.45-.96-5.18-2.3-5.18-.96,0-2.4,1.25-4.31,3.74l-14.09,19.27c-1.92,2.88-3.41,5.42-4.46,7.62-1.06,2.21-1.97,4.84-2.73,7.91-2.3,10.55-4.12,20.52-5.46,29.91-.39,3.07-1.34,5.42-2.88,7.05-1.54,1.63-4.27,2.78-8.2,3.45-3.93.67-9.73,1.1-17.4,1.29-1.92,0-3.45-.48-4.6-1.44-1.15-.96-1.73-2.2-1.73-3.74,0-.96.09-1.73.29-2.3.58-1.91,1.53-5.85,2.88-11.79,2.49-9.01,4.6-17.73,6.33-26.17l26.7-125.2c.03-.13.05-.26.07-.39.36-2.58.55-4.43.55-5.55,0-3.83-1.65-6.44-4.94-7.84-.34-.15-.71-.24-1.07-.31l-5.49-1.05c-2.69-.58-4.6-1.1-5.75-1.58-1.15-.48-1.73-1.29-1.73-2.44,0-2.49.86-4.26,2.59-5.32,1.68-1.03,4.28-2.1,7.79-3.22.17-.05.35-.1.53-.14,19.02-4.18,31.4-6.27,37.12-6.27,2.68,0,4.6.43,5.75,1.29,1.15.86,1.73,2.26,1.73,4.17,0,1.34-.1,2.4-.29,3.16l-23.87,113.02c-.19.39-.29.96-.29,1.73,0,1.15.38,1.73,1.15,1.73s1.82-.76,3.16-2.3c14.57-18.79,27.56-33.41,38.97-43.86,11.4-10.45,22.96-15.67,34.65-15.67,7.09,0,12.89,1.97,17.4,5.9,4.5,3.93,6.76,8.77,6.76,14.52,0,4.41-.96,7.86-2.88,10.35-1.92,2.49-4.7,3.74-8.34,3.74-2.88,0-4.99-.81-6.33-2.44-1.34-1.63-2.3-3.78-2.88-6.47-.39-3.07-1.25-5.27-2.59-6.61-1.34-1.34-3.64-2.01-6.9-2.01-6.33,0-14.48,5.28-24.44,15.82-1.73,1.54-2.88,3.16-3.45,4.89-.58,1.73-.67,4.03-.29,6.9,2.88,17.07,5.41,30.44,7.62,40.12,2.2,9.68,5.27,18.07,9.2,25.16,3.93,7.1,8.96,10.64,15.1,10.64,4.6,0,8.15-1.48,10.64-4.46,2.26-2.7,4.22-6.24,5.85-10.61.48-1.28,1.37-2.44,2.64-2.97.59-.25,1.21-.37,1.87-.37,1.53,0,2.73.72,3.59,2.16.86,1.44,1.01,3.02.43,4.74-2.88,9.59-7.38,17.64-13.52,24.16-6.14,6.52-14.67,9.78-25.59,9.78-23.01,0-37.2-25.5-42.56-76.5Z"/>
          <path class="cls-1" d="M369.73,268.25c0-5.06.81-11.33,2.43-18.83l15.18-68.94c.4-2.83.61-4.75.61-5.77,0-4.45-2.03-7.39-6.07-8.81-1.21-.4-3.24-.81-6.07-1.21,0,0,0,0,0,0-2.84-.61-4.91-1.21-6.22-1.82-1.32-.61-1.97-1.52-1.97-2.73,0-2.23.96-3.95,2.89-5.16,1.92-1.21,4.81-2.43,8.65-3.64,19.84-4.45,32.9-6.68,39.18-6.68,5.47,0,8.2,1.82,8.2,5.47,0,.61-.2,1.72-.61,3.34l-20.95,97.79c-.61,2.43-.91,4.66-.91,6.68,0,3.45.76,6.07,2.28,7.9,1.52,1.82,3.59,2.73,6.23,2.73,3.44,0,6.53-1.57,9.26-4.71,3.04-3.49,6.02-8.8,8.94-15.93h3.66c1.41-.01,2.58.44,3.49,1.35.91.91,1.37,2.28,1.37,4.1,0,1.42-.51,3.34-1.52,5.77-3.64,10.13-9.21,18.52-16.7,25.21-7.49,6.68-15.9,10.02-25.21,10.02-17.41,0-26.12-8.7-26.12-26.12ZM398.88,118.69c-2.43-1.72-3.65-4.1-3.65-7.14,0-6.48,3.59-12,10.78-16.55,7.18-4.56,15.53-6.83,25.05-6.83,4.25,0,7.49.81,9.72,2.43,2.22,1.62,3.34,3.95,3.34,6.99,0,6.28-3.49,11.8-10.48,16.55-6.99,4.76-15.14,7.14-24.45,7.14-4.46,0-7.9-.86-10.32-2.58Z"/>
          <path class="cls-1" d="M207.69,83.29c-3.72-6.92-9.13-14.6-17.18-22.15-2.4-2.34-5.62-5.2-9.67-8.16-1.41-1.04-4.88-3.51-10.21-6.49-4.01-2.22-11.12-6.19-20.19-8.97-15.86-4.86-29.49-3.61-34.77-3.07-.33.03-7.63,1.41-22.26,4.15-3.69.7-7.84,1.47-13.53,2.32-8.14,1.23-12.63,1.57-13.88,1.67-4.95.36-7.96.58-12.21.33-6.86-.41-11.71-1.77-13.29-2.24-2.5-.74-5.18-1.55-8.4-3.41-2.37-1.37-4.78-2.8-6.89-5.65-2.14-2.88-2.81-5.66-2.99-6.49-1.06-4.76.34-8.66,1.03-10.51.7-1.85,2.57-6.1,6.99-9.51C36.08.64,42.44.67,44.32.74c-11.12-2.32-21.89.97-27.05,8.21-2.05,2.87-4.29,7.87-4.35,13.5-.04,3.54.76,6.7,1.11,8.1.5,1.94,1.04,4.08,2.37,6.47,1.94,3.49,4.41,5.5,6.73,7.36,3.79,3.02,7.19,4.55,9.94,5.78,2.12.94,7.19,3.04,13.96,4.22,5.08.88,9.47.97,12.35,1.03.53,0,2.15.03,4.28-.01,4.12-.1,8.29-.46,13.09-1.1,11.14-1.48,12.36-3.05,25.13-4.43,5.4-.57,9.67-.78,14.53-.43,1.64.11,6.76.54,13.26,2.18,3.92.98,7.22,2.12,9.78,3.14,2.78,1.07,6,2.54,9.41,4.58,3.88,2.34,7.03,4.79,9.47,6.99,4.08,4.24,6.82,8.3,8.6,11.34,1.63,2.8,4.52,7.81,6.1,14.7.94,4.15,1.13,7.71,1.13,10.25-3.15-2.44-6.56-4.62-10.22-6.53-11.89-6.23-25.7-9.35-41.43-9.35-22.05,0-42.03,5.52-59.95,16.54-17.94,11.02-32.21,25.55-42.85,43.57C9.07,164.86,2.78,184.04.87,204.36c-.58,4.59-.87,9.1-.87,13.5,0,15.53,3.21,29.05,9.64,40.56,6.42,11.51,15.57,20.38,27.47,26.6,11.88,6.23,25.68,9.35,41.41,9.35,22.05,0,42.03-5.56,59.96-16.68,17.93-11.11,32.26-25.74,42.99-43.85,3.68-6.22,6.83-12.55,9.47-19.01h0c4.92-7.73,45.79-77.49,16.74-131.54ZM163.35,173.59c-2.11,16.87-6.94,33.25-14.52,49.17-7.57,15.91-17.17,28.96-28.76,39.12-11.61,10.17-24.2,15.24-37.82,15.24-14.37,0-25.55-5.13-33.5-15.39-7.96-10.25-11.94-23.73-11.94-40.41,0-4.78.29-9.58.86-14.37,2.11-16.68,6.9-32.97,14.39-48.88,7.47-15.91,17-28.91,28.61-38.97,11.59-10.07,24.2-15.1,37.82-15.1,14.57,0,25.84,5.13,33.8,15.39,7.94,10.27,11.94,23.63,11.94,40.11,0,4.42-.29,9.11-.87,14.1Z"/>
        </g>
        <circle class="cls-1" cx="44.88" cy="21.01" r="13.59"/>
      </g>
      <text class="cls-2" transform="translate(12.18 364.36)"><tspan x="0" y="0">WOVEN IN TRADITION</tspan></text>
    </g>
  </g>
</svg>