<?xml version="1.0" encoding="UTF-8"?>
<svg id="Layer_2" data-name="Layer 2" xmlns="http://www.w3.org/2000/svg" viewBox="0 0 332.84 283.96">
  <defs>
    <style>
      .cls-1 {
        fill: #0a7c6e;
      }

      .cls-2 {
        fill: #f59e0b;
      }
    </style>
  </defs>
  <g id="Layer_1-2" data-name="Layer 1">
    <g>
      <path class="cls-1" d="M176.66,98.5c1.59,7.41,5.71,11.23,12.52,10.96,3.89-.16,8.04-.96,11.54-2.6,15.16-7.07,25.36-18.49,29-35.15,1.62-7.42,3.08-14.88,4.76-23.02-2.96.21-5.22.36-7.47.54-4.62.37-7.57-1.6-8.08-5.42-.5-3.81,2.13-7.62,6.11-8.44,2.6-.53,5.27-.88,7.92-.91,3.9-.05,5.44-2.01,6.01-5.67.75-4.75,1.88-9.46,3.05-14.13,1.21-4.85,4.82-7.25,9.14-6.37,4.14.84,5.87,3.98,4.96,9.27-.79,4.56-1.71,9.1-2.73,14.44,5.26-.46,9.99-.93,14.72-1.26,5.52-.39,8.13,1.46,8.59,5.91.44,4.28-2.41,7.75-7.27,8.44-5.27.74-10.6,1.03-15.85,1.9-1.42.23-3.52,1.63-3.78,2.82-2.92,13.65-5.55,27.36-8.22,41.06-.19.97-.15,1.99-.11,2.99.18,3.85.17,7.9,4.13,10.08,4.24,2.33,8.19.59,11.68-1.81,9.12-6.29,15.12-14.87,17.65-25.7,1.78-7.61,2.9-15.39,5.14-22.85.81-2.69,3.58-5.8,6.18-6.74,5.16-1.88,9.08,2.6,7.96,8.44-2.12,11.1-4.5,22.16-6.48,33.28-.81,4.57-1.57,9.95,3.72,12.3,5.38,2.39,9.12-1.68,12.34-5.3,8.13-9.13,10.52-20.5,12.21-32.14.74-5.09,1.56-10.2,2.82-15.18,1.05-4.13,4.41-5.96,8.46-5.2,4.24.8,6.06,3.97,5.41,8.19-3.58,23.17-7.04,46.36-10.97,69.46-1.57,9.2-4.58,18.11-10.47,25.63-7.04,9-15.95,14.06-27.76,11.94-8.89-1.59-15.22-8.49-15.49-16.49-.16-4.71,2.24-8.39,6.2-8.97,4.62-.68,7.02,1.53,7.96,6.13.91,4.43,4.7,6.11,8.41,4.85,3.55-1.21,7.4-3.51,9.55-6.47,5.98-8.23,7.47-18.12,8.9-28.36-19.17,10.79-26.97,10-35.88-4.24-1.34,1.75-2.35,3.45-3.72,4.8-5.59,5.51-12.1,9.37-20.05,10.24-11.11,1.22-17.68-3.37-22.05-15.55-2.66,2.41-5.17,4.72-7.72,6.99-8.35,7.42-18.06,11.8-29.21,12.75-15.44,1.31-26.69-7.37-28.78-22.69-1.99-14.57,1.83-27.81,11.33-39.07,5.96-7.07,13.75-10.97,23.25-10.47,9.8.52,16.67,7.78,16.84,17.56.22,13.18-9.26,24.22-23.79,27.42-4.01.88-8.14,1.18-12.59,1.79ZM177.16,85.11c8.36.19,15.2-1.65,19.88-8.23,2.13-2.99,2.99-6.66.11-9.65-2.99-3.1-6.48-1.86-9.52.24-5.92,4.09-8.96,9.99-10.47,17.64Z"/>
      <path class="cls-1" d="M28.18,107.61c-5.77-2.41-14.29-2.98-11.5-12.32,2.46-8.21,9.27-4.5,15.14-3.65,2.49-12.09,4.92-23.93,7.38-35.76,1.01-4.88,2.05-9.76,3.14-14.63,1.26-5.62,5.16-8.49,9.88-7.39,4.2.98,5.98,4.65,4.79,10.47-3,14.66-6.11,29.29-9.15,43.94-.33,1.57-.5,3.17-.79,5.11,7.48.62,13.99-1.11,20.12-4.2,17.64-8.86,28.1-30.48,24.33-49.9-2.52-12.98-11.32-21.84-24.5-23.44-16.68-2.03-31.49,2.68-42.82,15.35-3.71,4.15-6.02,9.85-7.94,15.21-2.11,5.9-.94,11.82,2.94,17,2.61,3.48,2.36,6.94-.84,9.79-3.15,2.8-7.17,3.05-9.91.04-2.91-3.2-5.68-7.14-6.84-11.23-3.87-13.6-.57-26.23,8.1-37.03C25.73,5.01,46.87-2.99,72.09.99c21.73,3.43,35.81,21.63,35.74,45-.11,35.21-25.44,61.76-60.52,63.19-3.32.14-4.17,1.52-4.71,4.3-1.68,8.65-3.55,17.26-5.36,25.89-.31,1.46-.6,2.94-1.02,4.37-1.36,4.7-4.93,6.97-9.38,6.04-4.25-.89-6.26-4.1-5.28-9.15,1.95-10.12,4.11-20.2,6.18-30.29.16-.79.26-1.58.44-2.73Z"/>
      <path class="cls-1" d="M128.5,60.48c6.07-1.77,11.45-4.38,16.97-4.72,9.26-.58,15.64,7.95,13.77,17.08-.81,3.99-3.08,6.73-7.34,6.91-4.07.17-6.29-1.78-7.01-6.11-.22-1.33-3.69-3.44-4.9-3.01-3.13,1.11-6.39,2.94-8.59,5.38-5.49,6.11-7.58,13.88-9.11,21.8-1.23,6.36-2.45,12.72-3.92,19.03-1.2,5.17-4.86,7.61-9.38,6.67-4.31-.9-5.95-4.2-4.83-9.76,3.33-16.61,6.71-33.22,9.95-49.85.73-3.75,2.12-6.68,6.21-7.41,4.19-.75,7.11.9,8.17,3.99Z"/>
      <path class="cls-1" d="M215.63,173.69c-3.12.18-5.54.35-7.96.46-3.81.17-6.5-1.43-7.03-5.34-.56-4.14,1.25-7.11,5.5-7.99,2.72-.56,5.53-.82,8.31-1.01,3-.21,4.69-1.3,5.19-4.6.72-4.69,1.91-9.33,3.13-13.93,1.32-4.95,5.31-7.49,9.49-6.35,3.84,1.05,5.25,4.31,4.19,9.59-.74,3.7-1.44,7.41-2.13,11.13-.06.3.1.63.28,1.57,4.46-.42,8.97-.88,13.5-1.26,5.32-.45,7.77,1.15,8.3,5.34.51,4.07-2.13,7.67-6.57,8.39-5.19.84-10.47,1.11-15.62,2.14-1.58.32-3.72,2.13-4.06,3.6-2.66,11.69-4.94,23.46-7.34,35.2-.1.48-.16.97-.21,1.46-1.29,12.45,4.6,17.58,16.71,14.65,10.82-2.61,18.54-9.53,25.17-17.95,3.7-4.7,7.26-5.89,10.71-3.38,3.51,2.55,3.88,7.23.39,11.79-10.82,14.18-24.37,23.94-42.86,24.76-12.65.56-19.13-3.88-24.14-16.16-1.53,1.47-2.9,2.73-4.21,4.05-7.75,7.89-17.16,12.57-27.99,14.44-16.68,2.88-29.59-6.27-31.56-23.02-1.56-13.26,1.5-25.75,10.65-35.74,3.72-4.05,9-7.27,14.19-9.24,9.06-3.43,18.28-.44,22.61,5.99,4.59,6.82,3.63,18.39-2.24,25.38-6.04,7.19-14,10.65-23.19,11.58-2.24.23-4.48.38-6.74.57.85,6.45,4.07,9.78,10.03,10.54,6.68.86,12.77-1.16,18.24-4.7,12.04-7.78,20.76-17.96,23.09-32.74.99-6.26,2.65-12.42,4.14-19.25ZM159.88,207.23c8.67-.01,15.88-1.37,19.88-8.65,1.18-2.16.89-6.45-.57-8.3-1.12-1.41-5.6-1.46-7.82-.44-6.92,3.19-9.74,9.56-11.49,17.39Z"/>
      <path class="cls-1" d="M69.03,229.46c-10.72-4.25-12.73-6.28-11.42-11.29,1.19-4.55,4.11-5.37,14.77-3.89,2.34-11,4.7-22.04,7.05-33.09.89-4.18,1.69-8.37,2.66-12.53,1.33-5.71,5.01-8.6,9.54-7.66,4.19.87,5.6,4.18,4.33,10.32-2.75,13.19-5.53,26.36-8.28,39.55-.29,1.41-.47,2.85-.79,4.83,9.12.67,16.84-2.15,23.87-6.9,13.48-9.1,20.63-28.11,16.81-43.93-2.71-11.22-9.66-18.46-21.03-20.17-17.42-2.62-32.37,2.72-43.16,16.9-6.46,8.49-8.85,17.95-1.67,27.73,2.11,2.87,1.58,6.05-1.06,8.46-2.94,2.68-7.02,3.15-9.34.3-3.19-3.9-6.4-8.64-7.27-13.44-3.31-18.38,5.02-32.39,19.16-43.01,12.69-9.54,27.49-13.37,43.29-11.6,24.33,2.74,38.83,21.63,36.58,46.9-2.77,31.13-24.27,51.92-55.4,53.4-2.89.14-4.29.74-4.87,3.95-1.67,9.21-3.59,18.39-5.94,27.44-.66,2.54-2.61,5.63-4.83,6.7-5.48,2.64-10.42-1.91-9.24-8.32,1.54-8.4,3.5-16.72,5.25-25.08.37-1.75.63-3.52.99-5.57Z"/>
      <path class="cls-2" d="M317.95,240.67l-.5.75-.45.64c-.29.43-.59.82-.89,1.22-.59.81-1.2,1.56-1.81,2.32-1.25,1.48-2.53,2.93-3.86,4.31-2.67,2.75-5.49,5.34-8.47,7.72-1.47,1.22-3.03,2.31-4.55,3.46-1.57,1.07-3.11,2.2-4.73,3.2-1.62.99-3.22,2.02-4.89,2.92l-2.49,1.39c-.84.45-1.69.87-2.53,1.3-13.59,6.78-28.36,11.03-43.25,12.78-3.72.53-7.46.72-11.19,1.03l-5.59.18-2.8.06-2.79-.06-5.58-.12-5.55-.35c-3.71-.18-7.37-.73-11.04-1.14-14.65-1.9-28.95-5.4-42.7-10.21-3.24-1.13-4.94-4.68-3.81-7.92,1.05-2.99,4.14-4.67,7.16-4.02h.03c13.68,2.92,27.35,5.32,41.04,6.46,3.42.24,6.84.57,10.26.63l5.12.21h5.11s2.55-.02,2.55-.02l2.54-.12,5.08-.2c3.37-.3,6.75-.47,10.09-.97,3.36-.37,6.66-1,9.98-1.53l4.92-1.04c1.64-.34,3.25-.82,4.87-1.22,1.63-.39,3.21-.91,4.82-1.37.8-.24,1.61-.46,2.4-.72l2.37-.81,2.37-.81,2.32-.92,2.33-.91,2.29-.99c.76-.33,1.54-.65,2.29-1l2.25-1.08c1.52-.69,2.96-1.5,4.44-2.28,1.48-.76,2.9-1.63,4.35-2.44,1.39-.89,2.85-1.72,4.2-2.67,2.79-1.81,5.46-3.78,8.01-5.87,1.29-1.03,2.53-2.11,3.73-3.21.59-.55,1.2-1.1,1.76-1.65.28-.28.57-.56.83-.83l.39-.4c.11-.12.26-.29.3-.31l1.74-1.11c2.56-1.63,5.96-.88,7.59,1.68,1.21,1.9,1.11,4.26-.07,6.02Z"/>
      <g>
        <path class="cls-2" d="M330.84,201.29c-.11,9.95-7.57,18.6-17.11,19.83-8.71,1.12-18.61-5.65-20.33-14.91-.64-3.46-.72-7.26,1.01-10.41,2.27-4.15,7.39-4.72,12.19-1.51,2.1,1.4,4.02,2.7,5.73-.2,2.57-4.36,5.93-7.13,11.25-5.6,4.42,1.27,7.33,6.66,7.27,12.8Z"/>
        <path class="cls-2" d="M312.96,166.98c-.09.02-.19.04-.28.06-3.69,1.27-5.13,5.61-4.86,9.2.08,3.28,2.15,7.18,5.79,7.33.53.02,1.05-.11,1.53-.33,4.01-2.11,5.1-7.44,3.82-11.5-.61-2.66-3.11-5.26-6-4.75Z"/>
        <path class="cls-2" d="M295.97,169.74c-2.35.44-3.8,3.13-3.81,5.43-.07,4.58,2.85,9.79,7.72,10.45.45.02.9-.04,1.33-.18,3.05-1.03,3.82-4.76,3.23-7.58-.7-3.73-3.34-7.75-7.4-8.17-.37-.04-.72-.02-1.06.04Z"/>
        <path class="cls-2" d="M327.56,172.06c-4.04.9-6.18,5.42-5.97,9.29-.1,2.83,1.95,6.26,5.12,5.98,4.35-.76,6.58-5.9,6.05-9.93-.15-2.7-2.23-5.66-5.2-5.34Z"/>
        <path class="cls-2" d="M285.85,182.59c-1.74.26-3.28,1.58-3.56,3.43-.75,4.96,3.25,10.45,8.41,10.64,2.14.02,3.72-1.88,3.93-3.89.43-4.3-2.59-8.73-6.7-9.98-.68-.25-1.39-.31-2.07-.2h0Z"/>
      </g>
    </g>
  </g>
</svg>