<svg xmlns="http://www.w3.org/2000/svg" viewBox="0 0 535.77 131.32"><defs><style>.cls-1{fill:#0a7c6e;}.cls-2{fill:#f59e0b;}</style></defs><g id="Layer_2" data-name="Layer 2"><g id="Layer_1-2" data-name="Layer 1"><path class="cls-1" d="M138.81,77.4c1.25,5.83,4.49,8.83,9.84,8.61a24.09,24.09,0,0,0,9.07-2c11.91-5.56,19.92-14.53,22.79-27.62,1.27-5.83,2.42-11.69,3.73-18.09-2.32.17-4.1.29-5.87.43-3.62.29-6-1.26-6.34-4.26a6.07,6.07,0,0,1,4.8-6.63,32.68,32.68,0,0,1,6.23-.71c3.06,0,4.27-1.58,4.72-4.46.59-3.73,1.48-7.43,2.4-11.1s3.79-5.7,7.18-5,4.61,3.13,3.9,7.29c-.62,3.58-1.35,7.15-2.15,11.35,4.14-.36,7.85-.73,11.57-1,4.33-.31,6.39,1.15,6.75,4.64s-1.89,6.09-5.71,6.63c-4.14.58-8.33.81-12.45,1.49-1.12.19-2.77,1.28-3,2.22-2.29,10.72-4.36,21.49-6.46,32.26a9.62,9.62,0,0,0-.08,2.34c.14,3,.13,6.21,3.24,7.92,3.34,1.83,6.44.47,9.18-1.43a33,33,0,0,0,13.87-20.19c1.39-6,2.28-12.09,4-17.95a9.09,9.09,0,0,1,4.85-5.3c4.06-1.48,7.13,2,6.25,6.63-1.66,8.72-3.53,17.41-5.09,26.15-.63,3.59-1.23,7.82,2.93,9.66s7.16-1.31,9.7-4.16c6.39-7.17,8.26-16.1,9.59-25.25a114.4,114.4,0,0,1,2.22-11.93c.83-3.24,3.46-4.68,6.65-4.08s4.76,3.12,4.25,6.44c-2.82,18.2-5.53,36.42-8.63,54.58-1.23,7.23-3.59,14.23-8.22,20.14-5.53,7.07-12.53,11-21.81,9.39-7-1.25-12-6.67-12.18-13-.13-3.7,1.76-6.59,4.87-7,3.63-.53,5.51,1.2,6.26,4.82a4.82,4.82,0,0,0,6.6,3.81,15.92,15.92,0,0,0,7.51-5.09c4.7-6.46,5.87-14.23,7-22.28-15.06,8.48-21.19,7.86-28.19-3.33a35.78,35.78,0,0,1-2.92,3.77c-4.39,4.34-9.51,7.36-15.76,8-8.73,1-13.9-2.65-17.33-12.22-2.08,1.9-4.06,3.71-6.06,5.5a38.75,38.75,0,0,1-22.95,10c-12.13,1-21-5.79-22.62-17.82a38.06,38.06,0,0,1,8.9-30.71c4.68-5.55,10.8-8.61,18.27-8.22a13.56,13.56,0,0,1,13.23,13.8c.17,10.35-7.28,19-18.69,21.54C145.56,76.69,142.31,76.92,138.81,77.4Zm.4-10.52c6.57.15,11.94-1.3,15.62-6.47,1.67-2.35,2.35-5.23.08-7.58s-5.09-1.46-7.48.19C142.78,56.23,140.39,60.86,139.21,66.88Z"/><path class="cls-1" d="M22.14,84.56c-4.53-1.89-11.23-2.34-9-9.68C15,68.43,20.39,71.35,25,72c2-9.5,3.87-18.8,5.8-28.1Q32,38.15,33.27,32.42c1-4.42,4-6.68,7.76-5.81,3.3.78,4.7,3.65,3.76,8.23-2.35,11.52-4.79,23-7.18,34.52-.26,1.24-.39,2.5-.63,4a28.84,28.84,0,0,0,15.81-3.3c13.86-7,22.09-23.94,19.12-39.21-2-10.2-8.89-17.16-19.25-18.42C39.55,10.86,27.91,14.56,19,24.52c-2.92,3.26-4.74,7.74-6.25,12-1.66,4.63-.74,9.29,2.32,13.36,2.05,2.74,1.86,5.46-.67,7.7s-5.63,2.39-7.79,0a23.33,23.33,0,0,1-5.37-8.82c-3-10.69-.45-20.61,6.36-29.1,12.6-15.69,29.21-22,49-18.85,17.07,2.69,28.13,17,28.08,35.36-.09,27.67-20,48.53-47.56,49.65-2.61.11-3.27,1.19-3.7,3.38-1.32,6.8-2.79,13.57-4.21,20.34-.24,1.15-.47,2.31-.8,3.44-1.07,3.69-3.87,5.48-7.37,4.75-3.34-.7-4.92-3.22-4.15-7.2,1.53-8,3.23-15.87,4.85-23.8C21.92,86.08,22,85.46,22.14,84.56Z"/><path class="cls-1" d="M101,47.52c4.77-1.39,9-3.43,13.34-3.71,7.27-.46,12.29,6.25,10.82,13.42-.64,3.14-2.41,5.29-5.77,5.43-3.19.14-4.94-1.39-5.5-4.79-.18-1-2.91-2.71-3.85-2.37a16.73,16.73,0,0,0-6.75,4.23c-4.31,4.8-6,10.91-7.16,17.13-1,5-1.93,10-3.08,15-.94,4.06-3.82,6-7.37,5.24-3.39-.7-4.67-3.3-3.8-7.67,2.62-13,5.28-26.1,7.82-39.17.58-2.94,1.67-5.25,4.88-5.82S100.14,45.1,101,47.52Z"/><path class="cls-1" d="M437.36,38.73c-2.62.15-4.66.3-6.69.39-3.2.14-5.46-1.21-5.9-4.49-.47-3.47,1.05-6,4.62-6.7a51,51,0,0,1,7-.85c2.52-.18,3.93-1.1,4.36-3.87a109.58,109.58,0,0,1,2.63-11.69c1.11-4.16,4.46-6.29,8-5.34,3.22.88,4.41,3.62,3.52,8.05-.62,3.11-1.21,6.23-1.79,9.35a5.18,5.18,0,0,0,.23,1.32c3.74-.35,7.54-.74,11.34-1.06,4.47-.38,6.52,1,7,4.48a6.27,6.27,0,0,1-5.51,7c-4.36.71-8.8.93-13.12,1.8a5.11,5.11,0,0,0-3.4,3c-2.23,9.81-4.15,19.7-6.16,29.56a10.13,10.13,0,0,0-.18,1.23c-1.09,10.45,3.86,14.76,14,12.3,9.08-2.2,15.56-8,21.13-15.07,3.1-3.95,6.09-4.95,9-2.84s3.26,6.06.33,9.9c-9.08,11.9-20.46,20.1-36,20.79-10.62.46-16.06-3.26-20.27-13.58-1.28,1.24-2.44,2.29-3.53,3.41A42.23,42.23,0,0,1,404.41,98c-14,2.42-24.84-5.27-26.5-19.33-1.31-11.14,1.26-21.63,8.95-30a31.81,31.81,0,0,1,11.91-7.75c7.61-2.89,15.34-.38,19,5,3.85,5.72,3,15.44-1.88,21.31-5.07,6-11.76,8.94-19.48,9.72-1.88.2-3.76.33-5.66.49.72,5.41,3.42,8.21,8.43,8.85,5.61.72,10.72-1,15.32-3.94,10.11-6.54,17.43-15.08,19.39-27.49C434.7,49.64,436.1,44.47,437.36,38.73ZM390.54,66.89c7.28,0,13.34-1.15,16.69-7.26,1-1.81.75-5.42-.48-7-.94-1.18-4.7-1.23-6.56-.37C394.38,55,392,60.32,390.54,66.89Z"/><path class="cls-1" d="M314.26,85.56c-9-3.57-10.69-5.27-9.59-9.48,1-3.82,3.45-4.51,12.4-3.27Q320,59,323,45c.75-3.51,1.42-7,2.24-10.53,1.11-4.79,4.2-7.22,8-6.43,3.52.73,4.71,3.51,3.64,8.66q-3.47,16.6-7,33.21c-.25,1.18-.39,2.39-.66,4,7.66.56,14.14-1.81,20-5.79,11.32-7.64,17.32-23.6,14.12-36.89-2.28-9.41-8.11-15.5-17.66-16.93-14.63-2.21-27.18,2.28-36.24,14.19-5.42,7.12-7.43,15.07-1.4,23.28,1.77,2.41,1.32,5.08-.89,7.1-2.47,2.25-5.9,2.65-7.85.26-2.68-3.28-5.37-7.26-6.1-11.29-2.78-15.43,4.22-27.19,16.09-36.11A49.74,49.74,0,0,1,345.7,2.07c20.44,2.3,32.61,18.16,30.72,39.38C374.09,67.59,356,85.05,329.9,86.29c-2.43.12-3.6.62-4.09,3.32-1.4,7.73-3,15.44-5,23-.55,2.13-2.2,4.73-4.06,5.62-4.6,2.22-8.74-1.6-7.75-7,1.29-7.05,2.93-14,4.41-21.06C313.73,88.76,314,87.27,314.26,85.56Z"/><path class="cls-2" d="M523.27,95l-.43.63-.37.54c-.25.36-.5.69-.75,1-.49.68-1,1.3-1.52,2-1.05,1.24-2.12,2.45-3.24,3.61a75,75,0,0,1-7.11,6.48c-1.23,1-2.54,1.94-3.82,2.91s-2.61,1.84-4,2.68-2.71,1.7-4.11,2.46l-2.09,1.17c-.7.38-1.42.72-2.13,1.09a110.26,110.26,0,0,1-36.31,10.72c-3.13.45-6.26.61-9.4.87l-4.69.16-2.35,0-2.34,0-4.69-.1-4.66-.3c-3.11-.15-6.18-.61-9.26-1a178.2,178.2,0,0,1-35.86-8.58,5.21,5.21,0,0,1,2.81-10h0a273.44,273.44,0,0,0,34.46,5.42c2.87.2,5.74.48,8.61.53l4.3.17h6.43l2.13-.1,4.27-.17c2.83-.26,5.67-.4,8.47-.82s5.59-.84,8.38-1.28l4.13-.87c1.38-.29,2.73-.69,4.09-1s2.7-.77,4-1.15c.67-.2,1.35-.39,2-.6l2-.69,2-.68,1.95-.77,2-.76,1.92-.83c.64-.28,1.29-.54,1.92-.84l1.89-.91c1.28-.58,2.49-1.26,3.73-1.91s2.43-1.36,3.65-2,2.39-1.45,3.53-2.25a75.79,75.79,0,0,0,6.73-4.92c1.08-.87,2.12-1.77,3.13-2.7.49-.46,1-.92,1.48-1.39.23-.23.47-.46.69-.69l.32-.34.26-.26,1.46-.93A4.62,4.62,0,0,1,523.27,95Z"/><path class="cls-2" d="M534.09,61.9c-.09,8.36-6.36,15.62-14.37,16.66-7.32.94-15.63-4.75-17.07-12.53-.54-2.9-.6-6.09.85-8.74,1.91-3.48,6.2-4,10.23-1.27,1.76,1.18,3.38,2.27,4.81-.16,2.16-3.67,5-6,9.45-4.71C531.7,52.22,534.14,56.75,534.09,61.9Z"/><path class="cls-2" d="M519.07,33.09l-.23,0c-3.1,1.06-4.31,4.71-4.08,7.72.06,2.76,1.81,6,4.86,6.16a3,3,0,0,0,1.29-.28c3.37-1.77,4.28-6.25,3.2-9.66C523.6,34.85,521.5,32.67,519.07,33.09Z"/><path class="cls-2" d="M504.81,35.41c-2,.37-3.19,2.62-3.2,4.56-.06,3.85,2.39,8.22,6.48,8.78a3,3,0,0,0,1.11-.15c2.57-.86,3.21-4,2.71-6.36-.58-3.13-2.8-6.51-6.21-6.86A2.92,2.92,0,0,0,504.81,35.41Z"/><path class="cls-2" d="M531.33,37.36c-3.39.76-5.19,4.55-5,7.8-.08,2.37,1.64,5.25,4.3,5,3.65-.64,5.52-5,5.08-8.34C535.58,39.58,533.83,37.08,531.33,37.36Z"/><path class="cls-2" d="M496.31,46.2a3.51,3.51,0,0,0-3,2.88c-.63,4.17,2.73,8.78,7.06,8.93a3.47,3.47,0,0,0,3.29-3.26,8.24,8.24,0,0,0-5.62-8.38,3.47,3.47,0,0,0-1.74-.17Z"/></g></g></svg>